<svg class="viz viz--index" viewBox="0 0 400 225" role="img" aria-label="Inverted index with terms and their posting lists" preserveAspectRatio="xMidYMid slice" xmlns="http://www.w3.org/2000/svg"><g class="v-grid"><line x1="20" y1="0" x2="20" y2="225"/><line x1="50" y1="0" x2="50" y2="225"/><line x1="80" y1="0" x2="80" y2="225"/><line x1="110" y1="0" x2="110" y2="225"/><line x1="140" y1="0" x2="140" y2="225"/><line x1="170" y1="0" x2="170" y2="225"/><line x1="200" y1="0" x2="200" y2="225"/><line x1="230" y1="0" x2="230" y2="225"/><line x1="260" y1="0" x2="260" y2="225"/><line x1="290" y1="0" x2="290" y2="225"/><line x1="320" y1="0" x2="320" y2="225"/><line x1="350" y1="0" x2="350" y2="225"/><line x1="380" y1="0" x2="380" y2="225"/><line x1="0" y1="15" x2="400" y2="15"/><line x1="0" y1="45" x2="400" y2="45"/><line x1="0" y1="75" x2="400" y2="75"/><line x1="0" y1="105" x2="400" y2="105"/><line x1="0" y1="135" x2="400" y2="135"/><line x1="0" y1="165" x2="400" y2="165"/><line x1="0" y1="195" x2="400" y2="195"/></g><g transform="translate(52.0 8.9) scale(0.74)"><text class="v-label" x="20" y="48">cancer</text><rect class="v-post" x="104" y="37" width="30" height="14" rx="3" style="--i:0"/><rect class="v-post" x="140" y="37" width="29" height="14" rx="3" style="--i:1"/><rect class="v-post" x="175" y="37" width="16" height="14" rx="3" style="--i:2"/><rect class="v-post" x="197" y="37" width="23" height="14" rx="3" style="--i:3"/><text class="v-label" x="20" y="80">cell</text><rect class="v-post v-post--acc" x="104" y="69" width="27" height="14" rx="3" style="--i:2"/><rect class="v-post v-post--acc" x="137" y="69" width="30" height="14" rx="3" style="--i:3"/><rect class="v-post v-post--acc" x="173" y="69" width="14" height="14" rx="3" style="--i:4"/><rect class="v-post" x="193" y="69" width="12" height="14" rx="3" style="--i:5"/><rect class="v-post" x="211" y="69" width="27" height="14" rx="3" style="--i:6"/><rect class="v-post" x="244" y="69" width="20" height="14" rx="3" style="--i:7"/><rect class="v-post" x="270" y="69" width="29" height="14" rx="3" style="--i:8"/><text class="v-label" x="20" y="112">protein</text><rect class="v-post" x="104" y="101" width="18" height="14" rx="3" style="--i:4"/><rect class="v-post" x="128" y="101" width="27" height="14" rx="3" style="--i:5"/><rect class="v-post" x="161" y="101" width="29" height="14" rx="3" style="--i:6"/><rect class="v-post" x="196" y="101" width="29" height="14" rx="3" style="--i:7"/><text class="v-label" x="20" y="144">dna</text><rect class="v-post" x="104" y="133" width="24" height="14" rx="3" style="--i:6"/><rect class="v-post" x="134" y="133" width="16" height="14" rx="3" style="--i:7"/><rect class="v-post" x="156" y="133" width="19" height="14" rx="3" style="--i:8"/><rect class="v-post" x="181" y="133" width="16" height="14" rx="3" style="--i:9"/><rect class="v-post" x="203" y="133" width="28" height="14" rx="3" style="--i:10"/><rect class="v-post" x="237" y="133" width="24" height="14" rx="3" style="--i:11"/><text class="v-label" x="20" y="176">tumor</text><rect class="v-post v-post--acc" x="104" y="165" width="12" height="14" rx="3" style="--i:8"/><rect class="v-post v-post--acc" x="122" y="165" width="14" height="14" rx="3" style="--i:9"/><rect class="v-post v-post--acc" x="142" y="165" width="17" height="14" rx="3" style="--i:10"/><rect class="v-post" x="165" y="165" width="30" height="14" rx="3" style="--i:11"/><rect class="v-post" x="201" y="165" width="13" height="14" rx="3" style="--i:12"/><rect class="v-post" x="220" y="165" width="21" height="14" rx="3" style="--i:13"/><rect class="v-post" x="247" y="165" width="12" height="14" rx="3" style="--i:14"/><rect class="v-post" x="265" y="165" width="20" height="14" rx="3" style="--i:15"/><text class="v-label" x="20" y="208">gene</text><rect class="v-post" x="104" y="197" width="24" height="14" rx="3" style="--i:10"/><rect class="v-post" x="134" y="197" width="25" height="14" rx="3" style="--i:11"/><rect class="v-post" x="165" y="197" width="24" height="14" rx="3" style="--i:12"/><rect class="v-post" x="195" y="197" width="30" height="14" rx="3" style="--i:13"/><rect class="v-post" x="231" y="197" width="26" height="14" rx="3" style="--i:14"/><rect class="v-post" x="263" y="197" width="16" height="14" rx="3" style="--i:15"/><text class="v-label" x="20" y="240">enzyme</text><rect class="v-post" x="104" y="229" width="15" height="14" rx="3" style="--i:12"/><rect class="v-post" x="125" y="229" width="13" height="14" rx="3" style="--i:13"/><rect class="v-post" x="144" y="229" width="16" height="14" rx="3" style="--i:14"/><rect class="v-post" x="166" y="229" width="27" height="14" rx="3" style="--i:15"/><rect class="v-post" x="199" y="229" width="18" height="14" rx="3" style="--i:16"/><text class="v-label v-label--dim" x="20" y="268">MAP · cosine ranking</text></g></svg>
