<svg class="chart chart--twitter-runtime" viewBox="0 0 640 340" role="img" aria-label="Slope chart of load time for four strategies growing from about 10 seconds at 130 thousand tweets to 43 to 53 seconds at 650 thousand" xmlns="http://www.w3.org/2000/svg"><line class="c-grid" x1="48" y1="296.0" x2="350" y2="296.0"/><text class="c-axis" x="38.0" y="300.0" text-anchor="end">0s</text><line class="c-grid" x1="48" y1="205.3" x2="350" y2="205.3"/><text class="c-axis" x="38.0" y="209.3" text-anchor="end">20s</text><line class="c-grid" x1="48" y1="114.7" x2="350" y2="114.7"/><text class="c-axis" x="38.0" y="118.7" text-anchor="end">40s</text><line class="c-grid" x1="48" y1="24.0" x2="350" y2="24.0"/><text class="c-axis" x="38.0" y="28.0" text-anchor="end">60s</text><text class="c-axis" x="68.0" y="320.0" text-anchor="middle">130k tweets</text><text class="c-axis" x="340.0" y="320.0" text-anchor="middle">650k tweets</text><line class="c-line" x1="68" y1="247.9" x2="340" y2="53.9"/><path class="c-leader" d="M346 53.9 L368 29.1"/><circle class="c-dot" cx="68" cy="247.9" r="4"><title>C · file → SQLite, row by row: 10.6s at 130k tweets</title></circle><circle class="c-dot" cx="340" cy="53.9" r="4"><title>C · file → SQLite, row by row: 53.4s at 650k tweets</title></circle><text class="c-label" x="374.0" y="33.1" text-anchor="start">C · file → SQLite, row by row</text><text class="c-axis" x="374.0" y="47.1" text-anchor="start">10.6s → 53.4s</text><line class="c-line c-line--acc" x1="68" y1="255.2" x2="340" y2="76.1"/><path class="c-leader" d="M346 76.1 L368 59.1"/><circle class="c-dot c-dot--acc" cx="68" cy="255.2" r="4"><title>D · file → SQLite, 2,500-row batches: 9.0s at 130k tweets</title></circle><circle class="c-dot c-dot--acc" cx="340" cy="76.1" r="4"><title>D · file → SQLite, 2,500-row batches: 48.5s at 650k tweets</title></circle><text class="c-label c-label--strong" x="374.0" y="63.1" text-anchor="start">D · file → SQLite, 2,500-row batches</text><text class="c-axis" x="374.0" y="77.1" text-anchor="start">9.0s → 48.5s</text><line class="c-line" x1="68" y1="254.3" x2="340" y2="85.2"/><path class="c-leader" d="M346 85.2 L368 89.1"/><circle class="c-dot" cx="68" cy="254.3" r="4"><title>B · web stream → SQLite: 9.2s at 130k tweets</title></circle><circle class="c-dot" cx="340" cy="85.2" r="4"><title>B · web stream → SQLite: 46.5s at 650k tweets</title></circle><text class="c-label" x="374.0" y="93.1" text-anchor="start">B · web stream → SQLite</text><text class="c-axis" x="374.0" y="107.1" text-anchor="start">9.2s → 46.5s</text><line class="c-line" x1="68" y1="249.3" x2="340" y2="102.4"/><path class="c-leader" d="M346 102.4 L368 119.1"/><circle class="c-dot" cx="68" cy="249.3" r="4"><title>A · download raw file: 10.3s at 130k tweets</title></circle><circle class="c-dot" cx="340" cy="102.4" r="4"><title>A · download raw file: 42.7s at 650k tweets</title></circle><text class="c-label" x="374.0" y="123.1" text-anchor="start">A · download raw file</text><text class="c-axis" x="374.0" y="137.1" text-anchor="start">10.3s → 42.7s</text></svg>
